<svg id="Camada_1" data-name="Camada 1" xmlns="http://www.w3.org/2000/svg" viewBox="0 0 439.12 39.39"><defs><style>.cls-1{fill:#201d00;}</style></defs><title>logo_sala03_princ_horiz</title><path class="cls-1" d="M0,26.71l4.72-.58c.39,4.91,1.36,6.61,5.35,6.61,4.53,0,5.35-2,5.35-5.4C15.42,18.73.73,20.73.73,9.24.73,3.79,3.06,0,10.22,0c7.39,0,8.85,3.36,9.39,10.22L15,10.66C14.6,6,14,4.28,10.12,4.28S5.35,6.08,5.35,9c0,7.88,14.74,6.23,14.74,18.15,0,5.89-2.23,9.92-10,9.92S.53,33.18,0,26.71Z"/><path class="cls-1" d="M34.4.29h5.4l7.73,36.49H42.86L41,28.07H33l-1.79,8.71H26.61Zm5.89,23.55L37,8.08H37L33.77,23.84Z"/><path class="cls-1" d="M56.68.29H61.4V32.4H72.69l.58,4.38H56.68Z"/><path class="cls-1" d="M90.45.29h5.4l7.74,36.49H98.91l-1.84-8.71h-8l-1.79,8.71H82.66Zm5.89,23.55L93.08,8.08h0L89.82,23.84Z"/><path class="cls-1" d="M125.19,24.91V12.11C125.19,3.55,128.11,0,135.45,0s10.32,3.55,10.32,12.11v12.8c0,8.52-2.92,12.16-10.32,12.16S125.19,33.43,125.19,24.91ZM141,24.52v-12c0-5.69-1-8.22-5.55-8.22S130,6.86,130,12.55v12c0,5.6,1,8.18,5.49,8.18S141,30.12,141,24.52Z"/><path class="cls-1" d="M155,26.32l4.58-.39c.43,4.92,1,6.81,5.35,6.81,4.09,0,5.06-2.14,5.06-6.66,0-4.87-.88-6.52-4.91-6.52h-2.63V15.23H165c4,0,4.62-1.9,4.62-5.69,0-3.26-.59-5.26-4.67-5.26s-4.67,1.9-5.11,6.62l-4.62-.34C155.79,4.38,157.15,0,165,0c7.2,0,9.29,3.26,9.29,9.1,0,4.13-.73,6.66-3.84,8.12,3.26,1.07,4.13,4.24,4.13,9.2,0,7.15-2.43,10.65-9.68,10.65C156.57,37.07,155.5,32.79,155,26.32Z"/><path class="cls-1" d="M207,21.15h2.32l3.31,15.63h-2l-.79-3.73h-3.42l-.77,3.73h-2Zm2.53,10.09-1.4-6.75h0l-1.38,6.75Z"/><path class="cls-1" d="M231.46,30.57h-1.92v6.21h-2V21.15h4.25c3.15,0,4,1.25,4,4.23v.94c0,2.31-.59,3.63-2.32,4.08l2.44,6.38h-2.08Zm.17-1.85c1.83,0,2.17-.57,2.17-2.46v-.82c0-1.89-.34-2.45-2-2.45h-2.28v5.73Z"/><path class="cls-1" d="M250.61,31.7V26.24c0-3.67,1.29-5.21,4.39-5.21s4.42,1.54,4.42,5.21V31.7c0,2.25-.52,3.71-1.66,4.48l1,3.21h-2.07l-.79-2.61a6,6,0,0,1-.88.06C251.88,36.84,250.61,35.34,250.61,31.7ZM255.34,35l-1-3.35h2.06l.69,2.29a7.19,7.19,0,0,0,.29-2.44V26.4c0-2.44-.44-3.52-2.38-3.52s-2.35,1.08-2.35,3.52v5.13c0,2.4.42,3.5,2.35,3.5Z"/><path class="cls-1" d="M274.59,31.7V21.15h2V31.53c0,2.4.29,3.5,2.23,3.5s2.29-1.1,2.29-3.5V21.15h2V31.7c0,3.64-1.21,5.21-4.27,5.21S274.59,35.34,274.59,31.7Z"/><path class="cls-1" d="M298.9,21.15h2V36.78h-2Z"/><path class="cls-1" d="M319.1,23h-3.21V21.15h8.47V23h-3.23V36.78h-2Z"/><path class="cls-1" d="M339.23,21.15h7.1L346.08,23h-4.83v4.52h3.94v1.92h-3.94v5.44h4.83l.25,1.87h-7.1Z"/><path class="cls-1" d="M363.62,23h-3.21V21.15h8.47V23h-3.24V36.78h-2Z"/><path class="cls-1" d="M383.47,31.7V21.15h2V31.53c0,2.4.29,3.5,2.23,3.5s2.29-1.1,2.29-3.5V21.15h2V31.7c0,3.64-1.21,5.21-4.27,5.21S383.47,35.34,383.47,31.7Z"/><path class="cls-1" d="M411.58,30.57h-1.92v6.21h-2V21.15h4.25c3.15,0,4,1.25,4,4.23v.94c0,2.31-.59,3.63-2.32,4.08L416,36.78H414Zm.17-1.85c1.83,0,2.16-.57,2.16-2.46v-.82c0-1.89-.33-2.45-2-2.45h-2.27v5.73Z"/><path class="cls-1" d="M433.5,21.15h2.31l3.31,15.63h-2l-.79-3.73h-3.41l-.78,3.73h-2ZM436,31.24l-1.4-6.75h0l-1.37,6.75Z"/></svg>